<svg width="52" height="47" viewBox="0 0 52 47" fill="none" xmlns="http://www.w3.org/2000/svg">
<ellipse cx="26" cy="33" rx="26" ry="14" fill="#1CA9C9"/>
<path d="M50.1636 32.5093C50.1636 37.4311 39.5808 41.4204 26.5273 41.4204C13.4737 41.4204 2.89091 37.4311 2.89091 32.5093C2.89091 30.2886 5.04589 28.2583 8.60981 26.6978H44.4457C48.0096 28.2583 50.1636 30.2886 50.1636 32.5093Z" fill="#FFCF11"/>
<path d="M50.1636 32.5093C50.1636 37.4311 39.5808 41.4204 26.5273 41.4204V26.6978H44.4457C48.0096 28.2583 50.1636 30.2886 50.1636 32.5093Z" fill="#D6B75A"/>
<path d="M44.9458 12.1241L32.2262 17.9835V6.44482C37.3871 3.49833 42.78 2.81259 42.78 2.81259C42.78 2.81259 44.4361 6.91054 44.9458 12.1241Z" fill="#4FC99D"/>
<path d="M8.10976 12.114L20.8283 17.9733V6.44482C15.6675 3.49843 10.2746 2.81259 10.2746 2.81259C10.2746 2.81259 8.62062 6.90517 8.10976 12.114Z" fill="#4FC99D"/>
<path d="M41.9322 12.114C39.8312 12.114 37.8229 12.5337 35.9781 13.2981L26.5273 34.501H28.9977C40.6874 34.501 50.1636 24.478 50.1636 12.114H41.9322Z" fill="#00A86B"/>
<path d="M17.0764 13.2981C15.2317 12.5337 13.2233 12.114 11.1224 12.114H2.89091C2.89091 24.478 12.3672 34.501 24.0568 34.501H26.5273L17.0764 13.2981Z" fill="#00A86B"/>
<path d="M32.8371 21.9673L26.5273 34.5015C19.983 34.5015 14.6777 28.8892 14.6777 21.9673C14.6777 9.9751 26.5273 0.57959 26.5273 0.57959L32.8371 21.9673Z" fill="#4FC99D"/>
<path d="M38.3768 21.9673C38.3768 28.8892 33.0716 34.5015 26.5273 34.5015V0.57959C26.5273 0.57959 38.3768 9.9751 38.3768 21.9673Z" fill="#23BD85"/>
</svg>
