<svg width="58" height="58" viewBox="0 0 58 58" fill="none" xmlns="http://www.w3.org/2000/svg">
<g clip-path="url(#clip0)">
<path d="M29 58C45.0163 58 58 45.0163 58 29C58 12.9837 45.0163 0 29 0C12.9837 0 0 12.9837 0 29C0 45.0163 12.9837 58 29 58Z" fill="#FFCF11"/>
<path d="M29 48.8242C39.9486 48.8242 48.8242 39.9486 48.8242 29C48.8242 18.0514 39.9486 9.17578 29 9.17578C18.0514 9.17578 9.17578 18.0514 9.17578 29C9.17578 39.9486 18.0514 48.8242 29 48.8242Z" fill="#FFE854"/>
<path d="M36.3932 46.5846L29 44.1829L21.6069 46.5846C21.6069 46.5846 -0.868411 46.5207 3.46222 55.5909H29H54.5378C58.8685 46.5208 36.3932 46.5846 36.3932 46.5846Z" fill="#0C99E6"/>
<path d="M54.5378 55.5909C53.8407 57.0239 48.7337 58.3528 38.8869 57.6324C29.04 56.9119 19.9937 54.8305 19.9937 54.8305V53.2107C19.9937 53.2107 38.4065 51.308 45.3313 51.4281C52.2562 51.5481 55.2584 54.1099 54.5378 55.5909Z" fill="#FFAEA1"/>
<path d="M45.7682 51.5792C45.7708 51.5348 45.7721 51.4883 45.7727 51.4406C45.6266 51.4358 45.4811 51.4305 45.3314 51.4279C38.4067 51.3079 19.9938 53.2105 19.9938 53.2105V54.8303C19.9938 54.8303 25.2171 56.032 32.0456 56.9253C32.7711 56.7673 33.4924 56.6081 34.2046 56.4482C37.0469 55.8105 39.4594 55.2267 41.1811 54.7602C42.1445 54.4992 42.873 54.2808 43.4085 54.0924C44.0843 53.8548 45.6672 53.2979 45.7682 51.5792Z" fill="#F4958C"/>
<path d="M3.46222 55.591C4.23049 56.9877 7.34493 58.9934 16.8715 57.4322C26.3982 55.8711 43.3308 52.1185 43.3708 51.4381C43.4107 50.7576 41.8089 49.4666 39.7275 49.4666C37.6461 49.4666 37.3258 50.072 36.1249 50.072C34.924 50.072 33.403 48.1858 32.1221 48.446C30.8413 48.7062 30.0807 51.308 30.0807 51.308C30.0807 51.308 17.9523 50.5075 11.5078 50.9077C5.06334 51.3079 2.58157 53.9898 3.46222 55.591Z" fill="#FFCFC2"/>
<path d="M8.26557 55.5909C7.38492 53.9898 9.86669 51.308 16.3111 50.9076C16.9798 50.8661 17.7104 50.8376 18.4815 50.8197C15.9652 50.7752 13.4723 50.7856 11.5078 50.9076C5.06334 51.3079 2.58157 53.9898 3.46222 55.5909C4.12424 56.7946 6.52942 58.4502 13.2788 57.8858C10.095 57.5359 8.73739 56.4488 8.26557 55.5909Z" fill="#FFAEA1"/>
<path d="M2.32941 47.3052C2.32941 47.3052 2.32941 45.8242 2.32941 45.4439C2.32941 45.0636 2.88981 45.0236 3.04988 45.4439C3.20994 45.8642 3.16259 47.3469 3.3964 47.7563V48.446L2.32941 47.3052Z" fill="#F4958C"/>
<path d="M55.6706 47.3052C55.6706 47.3052 55.6706 45.8242 55.6706 45.4439C55.6706 45.0636 55.1102 45.0236 54.9501 45.4439C54.7901 45.8642 54.8374 47.3469 54.6036 47.7563V48.446L55.6706 47.3052Z" fill="#F4958C"/>
<path d="M56.7765 46.2695C56.6864 46.0142 56.2961 46.1194 55.9959 46.4496C55.7861 46.6803 54.9902 47.4093 54.4732 47.8738C54.2207 48.1005 53.8402 48.106 53.581 47.8869C53.2192 47.5813 53.2724 47.0078 53.6856 46.7759C54.2736 46.446 54.9624 45.9963 55.0954 45.6389C55.3355 44.9935 54.7501 44.9185 54.4349 45.1436C54.1197 45.3688 50.1469 46.4645 50.1469 46.4645L43.5543 37.5783C43.5543 37.5783 43.154 24.7694 41.5528 23.4484C39.9517 22.1274 31.6418 20.7265 31.6418 20.7265V17.8445H29H26.3582V20.7265C26.3582 20.7265 18.0483 22.1274 16.4472 23.4484C14.8461 24.7694 14.4457 37.5783 14.4457 37.5783L7.85323 46.4645C7.85323 46.4645 3.88046 45.3688 3.5652 45.1436C3.24993 44.9184 2.66461 44.9935 2.90477 45.6389C3.03776 45.9965 3.72651 46.446 4.31455 46.7759C4.72757 47.0077 4.78093 47.5812 4.41911 47.8869C4.15981 48.1059 3.7793 48.1005 3.52691 47.8738C3.01 47.4093 2.21398 46.6802 2.00418 46.4496C1.70398 46.1194 1.31373 46.0142 1.22367 46.2695C1.13361 46.5247 2.46954 48.4459 2.7848 48.8813C3.10006 49.3166 4.48096 50.2172 5.33657 50.0522C6.19219 49.8871 9.1742 48.2659 9.1742 48.2659C9.1742 48.2659 17.7402 41.8215 18.5407 39.5399C19.3413 37.2583 19.9818 29.5609 19.9818 29.5609H38.0184C38.0184 29.5609 38.6589 37.2583 39.4595 39.5399C40.26 41.8215 48.826 48.2659 48.826 48.2659C48.826 48.2659 51.8082 49.8871 52.6638 50.0522C53.5194 50.2172 54.9003 49.3166 55.2156 48.8813C55.5306 48.4459 56.8665 46.5246 56.7765 46.2695Z" fill="#FFAEA1"/>
<path d="M26.3582 20.7266C26.3582 20.7266 30.401 21.0468 30.8013 17.8446H26.3582V20.7266Z" fill="#F4958C"/>
<path d="M34.0593 8.68615C34.0593 8.68615 34.3396 6.59475 33.3326 5.42705C33.1817 5.25214 32.8951 5.3712 32.9134 5.6015L32.9253 5.74956C32.9253 5.74956 32.3474 4.62196 30.8599 4.17914C30.6534 4.11763 30.4797 4.34487 30.5896 4.5302L30.6574 4.64462C30.6574 4.64462 29.7608 3.748 26.7891 3.68603C26.5708 3.6815 26.4627 3.94964 26.6221 4.09871L26.7924 4.25787C26.7923 4.25787 25.6734 4.45521 24.191 5.35274C24.008 5.46353 24.0537 5.74129 24.2621 5.78887L24.3835 5.81662C23.8097 6.47637 23.4925 7.16354 23.3307 7.60624C23.2605 7.79859 23.4489 7.98415 23.6401 7.91086C23.8313 7.83756 23.1848 10.0237 23.7364 11.8468L29 13.0357L34.2636 11.8467C34.2636 11.8467 34.5826 10.3143 34.0593 8.68615Z" fill="#8C4F5C"/>
<path d="M26.847 8.58067C25.2962 8.24807 24.1928 7.6393 23.6402 7.91072C23.6402 7.91072 23.185 10.0235 23.7365 11.8467L26.9855 12.5806L26.847 8.58067Z" fill="#7B3C47"/>
<path d="M33.0169 12.8538C33.0169 12.8538 33.5342 11.5941 34.4564 11.8866C35.3786 12.179 34.4341 14.9088 32.6344 15.0808L33.0169 12.8538Z" fill="#FFAEA1"/>
<path d="M24.9832 12.8538C24.9832 12.8538 24.4658 11.5941 23.5436 11.8866C22.6214 12.179 23.5659 14.9088 25.3656 15.0808L24.9832 12.8538Z" fill="#F4958C"/>
<path d="M33.1458 11.2642C33.0931 11.1358 33.0505 10.9518 33.0102 10.7393L29 9.57623L24.9899 10.7393C24.9495 10.9518 24.9069 11.1358 24.8543 11.2642C24.6173 11.8422 24.3196 11.9599 24.2799 11.9734C24.277 12.0638 24.2752 12.1546 24.2752 12.2464C24.2752 15.7256 26.3906 19.8061 29 19.8061C31.6094 19.8061 33.7249 15.7257 33.7249 12.2464C33.7249 12.1546 33.723 12.0638 33.7201 11.9734C33.6805 11.9599 33.3828 11.8421 33.1458 11.2642Z" fill="#FFCFC2"/>
<path d="M25.9 12.2462C25.9 11.5979 25.9743 10.9844 26.1109 10.414L24.9897 10.7391C24.9494 10.9516 24.9068 11.1356 24.8541 11.2641C24.6172 11.842 24.3195 11.9597 24.2798 11.9732C24.2769 12.0636 24.275 12.1545 24.275 12.2462C24.275 15.7254 26.3905 19.8059 28.9999 19.8059C29.277 19.8059 29.5483 19.7595 29.8122 19.6732C27.5901 18.9459 25.9 15.3561 25.9 12.2462Z" fill="#FFAEA1"/>
<path d="M29 8.9381C27.3485 8.9381 26.6875 8.41451 26.116 8.41315H26.1153C26.0096 8.41292 25.9069 8.43071 25.8016 8.47285C25.2667 8.6874 25.1443 9.92591 24.9897 10.7392H33.0102C32.8556 9.92591 32.7333 8.6874 32.1983 8.47285C32.0929 8.43059 31.9903 8.41292 31.8846 8.41315H31.8839C31.3125 8.41451 30.6517 8.9381 29 8.9381Z" fill="white"/>
<path d="M28.0994 9.83868C28.0994 9.34126 28.5026 8.9381 29 8.9381C27.3485 8.9381 26.6875 8.41451 26.116 8.41315H26.1153C26.0096 8.41292 25.9069 8.43071 25.8016 8.47285C25.2667 8.6874 25.1443 9.92591 24.9897 10.7392H29C28.5026 10.7393 28.0994 10.336 28.0994 9.83868Z" fill="#EBF0F3"/>
<path d="M38.0183 29.5607L36.6207 34.3382C36.4695 34.8548 36.3927 35.3904 36.3927 35.9286V46.5845H21.6073V35.9286C21.6073 35.3902 21.5306 34.8548 21.3793 34.3382L19.9817 29.5607C20.7135 29.5607 21.3059 28.9682 21.3059 28.2364V21.7545C22.4467 21.4826 23.5852 21.247 24.4914 21.0703V24.1515C24.4914 26.6415 26.51 28.6601 29 28.6601C31.49 28.6601 33.5086 26.6415 33.5086 24.1515V21.0703C34.4149 21.247 35.5533 21.4826 36.6941 21.7545V28.2364C36.6941 28.9682 37.2865 29.5607 38.0183 29.5607Z" fill="#3E4A68"/>
<path d="M28.8378 34.7773C24.5974 34.7773 23.3149 34.1519 22.5454 33.0919L19.9817 29.5607L21.3795 34.3383C21.5306 34.8548 21.6073 35.3904 21.6073 35.9286V46.5846H24.0156V36.3099C24.0156 35.9963 23.9736 35.6865 23.8957 35.3867C27.4775 35.296 28.8378 34.7773 28.8378 34.7773Z" fill="#303A59"/>
</g>
<defs>
<clipPath id="clip0">
<rect width="58" height="58" fill="white"/>
</clipPath>
</defs>
</svg>
