<svg width="58" height="58" viewBox="0 0 58 58" fill="none" xmlns="http://www.w3.org/2000/svg">
<path d="M44.4878 26.2812C43.8535 26.2812 43.2463 26.5349 42.8022 26.979L42.5938 27.1874L42.1497 24.9762C41.8506 23.4628 41.1075 22.0762 40.02 20.9887L39.9747 20.9434C38.7332 19.7018 37.1291 18.8953 35.4072 18.6506C33.8394 18.424 32.1719 18.1884 32.1719 18.1884C31.5103 18.7231 30.6585 19.0312 29.7522 19.0312H29.5166C28.556 19.0312 27.6316 18.8771 26.7707 18.5871C23.3269 17.4362 20.8528 14.1918 20.8619 10.3674C20.8619 8.38275 21.5416 6.52494 22.6925 5.04775C23.8525 3.57056 25.4838 2.46494 27.405 1.98463L28.0938 1.81244C28.6285 3.93306 30.5316 5.42838 32.7156 5.42838H32.7338H35.3075H38.5882C48.3122 5.42838 56.1875 13.3037 56.1875 23.0278C56.1875 25.5018 55.6619 27.9306 54.6831 30.1509C53.7044 32.3712 52.2544 34.3831 50.4238 36.0506L46.2188 39.8749L43.5 34.4374L45.4847 32.9512C46.5178 32.1718 47.125 30.9574 47.125 29.6706C47.125 29.2265 47.0525 28.7824 46.9166 28.3656L46.7625 27.9215C46.4363 26.9428 45.521 26.2812 44.4878 26.2812Z" fill="#656D78"/>
<path d="M49.0554 48.6746L53.0066 50.8224C53.9854 51.3662 54.7829 52.1455 55.3357 53.0699C55.8794 53.9943 56.1876 55.0637 56.1876 56.1874C55.0729 53.9671 52.8072 52.5624 50.3241 52.5624H49.3635C46.8804 52.5624 44.6147 53.9671 43.5001 56.1874H24.4688C24.4688 54.5199 25.4113 52.9974 26.8976 52.2543L33.341 49.0371C33.7851 48.8105 34.1657 48.5024 34.4738 48.1399C35.0538 49.7077 36.5401 50.7499 38.2076 50.7499C40.4913 50.7499 42.7297 50.1518 44.7054 49.028L47.5147 47.424L47.5238 47.4149C47.9407 47.9224 48.4572 48.3484 49.0554 48.6746Z" fill="#B4DD7F"/>
<path d="M56.1876 56.1874H43.5001C44.6147 53.9671 46.8804 52.5624 49.3635 52.5624H50.3241C52.8072 52.5624 55.0729 53.9671 56.1876 56.1874Z" fill="#A0D468"/>
<path d="M46.2188 43.8987C46.2188 45.2037 46.6901 46.4453 47.5238 47.415L47.5147 47.424L44.7054 49.0281C42.7297 50.1518 40.4913 50.75 38.2076 50.75C36.5401 50.75 35.0538 49.7078 34.4738 48.14C35.0266 47.4965 35.3438 46.6628 35.3438 45.7928V42.7206L34.1747 43.0559C33.1507 43.355 32.0813 43.5 31.0119 43.5C29.9607 43.5 29.0001 43.074 28.3113 42.3762C27.6135 41.6875 27.1876 40.7269 27.1876 39.6756C27.1876 39.2587 27.4685 38.8962 27.8763 38.7965L28.7554 38.579C29.9607 38.2709 30.8126 37.1834 30.8126 35.9419V35.3437H27.1876C26.6891 35.3437 26.2813 34.9359 26.2813 34.4375V32.625C25.1213 32.625 24.0066 32.1628 23.191 31.3472L22.6563 30.8125L24.4688 27.7856C25.0669 26.7978 25.3751 25.674 25.3751 24.5231V22.5022C25.3751 21.0703 25.8735 19.6837 26.7707 18.5872C27.6316 18.8772 28.556 19.0312 29.5166 19.0312H29.7522C30.6585 19.0312 31.5104 18.7231 32.1719 18.1884C32.1719 18.1884 33.8394 18.424 35.4072 18.6506C37.1291 18.8953 38.7332 19.7019 39.9747 20.9434L40.0201 20.9887C41.1076 22.0762 41.8507 23.4628 42.1497 24.9762L42.5938 27.1875L42.8022 26.979C43.2463 26.535 43.8535 26.2812 44.4879 26.2812C45.521 26.2812 46.4363 26.9428 46.7626 27.9215L46.9166 28.3656C47.0526 28.7825 47.1251 29.2265 47.1251 29.6706C47.1251 30.9575 46.5179 32.1719 45.4847 32.9512L43.5001 34.4375L46.2188 39.875V43.8987Z" fill="#F0D0B4"/>
<path d="M33.9264 25.9768C33.5276 26.1761 33.0817 26.2813 32.6368 26.2813C31.3943 26.2813 30.2959 25.4892 29.9026 24.312L29.86 24.1833L28.14 24.7533L28.1835 24.8838C28.8233 26.8042 30.6131 28.0938 32.6368 28.0938C33.3627 28.0938 34.0886 27.9225 34.7366 27.598L35.7488 27.0914L34.9377 25.4702L33.9264 25.9768Z" fill="black"/>
<path d="M53.4388 50.0313L49.4867 47.8753C48.0294 47.0806 47.125 45.5562 47.125 43.8969V40.2755L51.0364 36.7194C54.8852 33.2204 57.0937 28.2297 57.0937 23.0278C57.0937 12.8234 48.7925 4.52215 38.589 4.52215L32.7356 4.52487C32.7328 4.52487 32.731 4.52487 32.7292 4.52487C30.9493 4.52487 29.4051 3.31956 28.9719 1.59225L28.7526 0.71228L27.1857 1.1065C22.9354 2.17316 19.9601 5.9785 19.9529 10.362C19.9484 12.9186 20.9416 15.3228 22.7478 17.1317C23.529 17.9147 24.4271 18.5346 25.3949 18.9977C24.7932 20.0598 24.4687 21.2697 24.4687 22.5012V24.524C24.4687 25.5091 24.2005 26.477 23.6948 27.3216L21.5162 30.9529L22.5475 31.9842C23.3151 32.7518 24.3129 33.2639 25.3759 33.4515V34.4375C25.3759 35.4371 26.1888 36.25 27.1884 36.25H29.8809C29.7603 36.9478 29.2411 37.5214 28.5342 37.6982L27.656 37.9184C26.8458 38.1196 26.2812 38.8427 26.2812 39.6765C26.2812 42.2847 28.4028 44.4062 31.011 44.4062C32.1664 44.4062 33.3156 44.2449 34.4257 43.9277L34.4375 43.9241V45.791C34.4375 46.8277 33.8611 47.7593 32.9349 48.2224L26.496 51.4423C24.6862 52.3468 23.5625 54.1656 23.5625 56.1875V57.0937H57.0937V56.1875C57.0937 53.6192 55.6936 51.2602 53.4388 50.0313ZM54.4729 55.2812H45.2146C46.2659 54.1384 47.7548 53.4687 49.3652 53.4687H50.3231C51.9326 53.4687 53.4216 54.1384 54.4729 55.2812ZM21.7663 10.3647C21.7726 6.85484 24.1262 3.80169 27.5056 2.89544C28.3892 4.96078 30.4255 6.33737 32.7301 6.33737H32.7383L38.5899 6.33465C47.7929 6.33465 55.2812 13.823 55.2812 23.0278C55.2812 27.7203 53.2902 32.2226 49.8175 35.3791L46.4942 38.3996L44.6491 34.7084L46.0275 33.6744C47.2818 32.7337 48.0312 31.2348 48.0312 29.6661C48.0312 29.125 47.9442 28.5922 47.7748 28.0819L47.6243 27.6315C47.1739 26.2821 45.9151 25.375 44.4923 25.375C44.0437 25.375 43.6087 25.4638 43.2073 25.6332L43.0396 24.7968C42.7007 23.103 41.8769 21.5642 40.6118 20.2991C39.2234 18.9107 37.4662 18.0307 35.5322 17.7543L33.8892 17.5196C34.1711 17.0112 34.3596 16.4484 34.4166 15.8485C34.539 14.5734 34.1167 13.301 33.2603 12.3585C32.403 11.416 31.1795 10.875 29.9062 10.875V12.6875C30.6711 12.6875 31.4043 13.0119 31.919 13.5783C32.4401 14.152 32.6875 14.8969 32.6132 15.6763C32.4809 17.0492 31.2239 18.125 29.7504 18.125H29.5129C27.4412 18.125 25.4937 17.3175 24.0301 15.8512C22.5665 14.3849 21.7627 12.4364 21.7663 10.3647ZM39.2171 42.5584L38.7195 40.8157L33.9273 42.185C32.9793 42.456 31.9988 42.5937 31.011 42.5937C29.4033 42.5937 28.0937 41.2851 28.0946 39.6765L28.9728 39.4563C30.5896 39.053 31.7187 37.6066 31.7187 35.94V34.4375H27.1875V31.7187H26.2812C25.3677 31.7187 24.4742 31.3481 23.828 30.7028L23.7972 30.672L25.249 28.2541C25.9251 27.1277 26.2821 25.8381 26.2821 24.524V22.5012C26.2821 21.479 26.5975 20.4857 27.1503 19.633C27.9143 19.8269 28.7046 19.9375 29.5129 19.9375H29.7504C30.7182 19.9375 31.6209 19.6348 32.3776 19.1345L35.2758 19.5487C36.82 19.7689 38.222 20.4722 39.3756 21.6258C40.3408 22.591 40.9933 23.8108 41.2625 25.152L42.0364 29.0253L43.4384 27.6234C43.7202 27.3424 44.0945 27.1875 44.4923 27.1875C45.134 27.1875 45.7022 27.5971 45.9052 28.2052L46.0556 28.6556C46.1635 28.9809 46.2187 29.3208 46.2187 29.6661C46.2187 30.6675 45.7411 31.6245 44.94 32.2253L42.3518 34.1665L45.3125 40.0888V43.8969C45.3125 45.056 45.6279 46.168 46.197 47.1295L44.2576 48.2378C42.4188 49.2882 40.3272 49.8437 38.2093 49.8437C37.0837 49.8437 36.0542 49.2202 35.5205 48.2542C35.9863 47.5355 36.25 46.6882 36.25 45.791V43.4066L39.2171 42.5584ZM27.3062 53.0636L33.7451 49.8437C33.911 49.7603 34.0668 49.6643 34.2191 49.5637C35.119 50.8451 36.598 51.6562 38.2093 51.6562C40.6426 51.6562 43.0441 51.0182 45.1566 49.8111L47.3588 48.5523C47.7367 48.9012 48.1545 49.213 48.6185 49.4658L52.5706 51.6218C53.002 51.8574 53.3845 52.1528 53.7243 52.4882C52.693 51.9598 51.5384 51.6562 50.3222 51.6562H49.3643C46.7154 51.6562 44.3301 53.0382 42.9843 55.2812H25.4928C25.7456 54.3287 26.3936 53.5195 27.3062 53.0636Z" fill="black"/>
<path d="M2.71875 29.9062C2.71875 27.4077 4.75147 25.3749 7.25 25.3749C8.74894 25.3749 9.96875 26.5948 9.96875 28.0937C9.96875 29.5926 8.74894 30.8124 7.25 30.8124H6.34375V32.6249H7.25C9.74853 32.6249 11.7812 30.5922 11.7812 28.0937C11.7812 25.5952 9.74853 23.5624 7.25 23.5624C3.75278 23.5624 0.90625 26.4081 0.90625 29.9062C0.90625 33.4043 3.75278 36.2499 7.25 36.2499H21.75V34.4374H7.25C4.75147 34.4374 2.71875 32.4047 2.71875 29.9062Z" fill="black"/>
<path d="M6.34375 42.5937C6.34375 45.0922 8.37647 47.1249 10.875 47.1249C12.3739 47.1249 13.5938 45.9051 13.5938 44.4062C13.5938 42.9073 12.3739 41.6874 10.875 41.6874H9.96875V43.4999H10.875C11.3752 43.4999 11.7812 43.9068 11.7812 44.4062C11.7812 44.9055 11.3752 45.3124 10.875 45.3124C9.37606 45.3124 8.15625 44.0926 8.15625 42.5937C8.15625 41.0948 9.37606 39.8749 10.875 39.8749H21.75V38.0624H10.875C8.37647 38.0624 6.34375 40.0952 6.34375 42.5937Z" fill="black"/>
</svg>
