<svg width="58" height="69" viewBox="0 0 58 69" fill="none" xmlns="http://www.w3.org/2000/svg">
<path d="M30.8125 16.1721L28.0938 20.4846L25.375 16.1721H30.8125Z" fill="#2F4054"/>
<path d="M18.125 51.7506V50.6725L15.3111 41.4665C14.5056 38.8324 14.2951 35.9929 14.7006 33.2318C15.1061 30.4706 16.1135 27.8842 17.622 25.7311L19.0312 23.719H20.0508C20.6229 23.7192 21.1791 23.4952 21.6335 23.0815C22.0879 22.6679 22.415 22.0877 22.5645 21.4307C22.6256 21.1664 22.6565 20.8935 22.6562 20.6194V15.4645L28.0937 15.784V23.719H30.8125L30.1135 26.63C29.3975 29.6119 29.6468 32.8047 30.8125 35.5786C30.2174 36.2864 29.7453 37.1268 29.4232 38.0518C29.1012 38.9767 28.9354 39.9681 28.9354 40.9692C28.9354 41.9704 29.1012 42.9618 29.4232 43.8867C29.7453 44.8116 30.2174 45.6521 30.8125 46.3599L36.7779 50.0768L18.125 51.7506Z" fill="#F4CEAF"/>
<path d="M55.2812 58.3623C55.2813 59.3347 55.1204 60.2975 54.8077 61.1959C54.4949 62.0942 54.0365 62.9105 53.4585 63.5981C52.8806 64.2856 52.1945 64.831 51.4394 65.2031C50.6842 65.5751 49.8749 65.7666 49.0576 65.7665H15.677C12.4967 65.7662 9.3372 65.1564 6.31994 63.9606C5.13368 63.49 4.12687 62.5326 3.47964 61.2597C2.8324 59.9868 2.58696 58.4815 2.78724 57.013C2.98751 55.5445 3.62043 54.2088 4.57275 53.2446C5.52508 52.2805 6.73469 51.7509 7.98517 51.7507H18.125V50.6725H20.5639C22.3851 50.6724 24.1854 50.2125 25.8461 49.3232C27.5067 48.4339 28.9898 47.1354 30.1973 45.5136C30.3848 45.8131 30.5904 46.096 30.8125 46.36L46.1893 55.9419L45.5016 53.0808L43.6133 45.2144L47.6302 42.825L54.1858 54.1684C54.8992 55.4023 55.2812 56.8647 55.2812 58.3623Z" fill="#396795"/>
<path d="M48.0312 37.8925C48.0333 38.3233 47.9622 38.7501 47.822 39.1473C47.6818 39.5445 47.4755 39.9038 47.2156 40.2037C46.7061 40.7951 46.0232 41.1276 45.3114 41.131C44.8894 41.1299 44.4735 41.0113 44.097 40.7846L38.877 37.6795L33.5312 34.5004L30.8125 35.5785L26.2812 30.1878L30.8125 23.719L35.3437 24.7972L38.3638 28.8402L42.5937 34.5004L40.8662 26.9655L39.875 22.6409L36.25 21.5627L38.0625 17.2502H39.875L41.6875 18.3283L42.5937 22.6409L46.0987 29.5895C47.3632 32.0978 48.0312 34.9676 48.0312 37.8925Z" fill="#F4CEAF"/>
<path d="M38.0625 14.0157V17.2501L36.25 21.5627L33.5312 18.3283L29 14.734L26.7343 12.9376L19.9375 15.0939V24.7971L14.5 36.6566L15.2386 16.451C15.3496 13.4092 15.8638 10.4073 16.7622 7.55634C17.0722 6.56943 17.6754 5.75184 18.4577 5.25816C19.24 4.76448 20.1473 4.62893 21.008 4.87715C21.2309 4.94178 21.4482 5.03111 21.6571 5.14399L29 9.11422L38.0625 14.0157Z" fill="#F4CEAF"/>
<path d="M30.8125 35.5785C29.7257 36.8716 29.0656 38.5863 28.9527 40.41C28.8398 42.2337 29.2815 44.0449 30.1973 45.5135C28.9898 47.1353 27.5067 48.4338 25.8461 49.3231C24.1854 50.2125 22.3851 50.6724 20.5639 50.6725H18.125L15.3111 41.4665C14.5056 38.8324 14.2951 35.9929 14.7006 33.2317C15.1061 30.4705 16.1135 27.8842 17.622 25.7311L19.0312 23.719H20.0508C20.3199 23.7194 20.5874 23.6698 20.8437 23.5721V25.8753C20.8434 26.1585 20.8901 26.4391 20.981 26.7009C21.072 26.9627 21.2055 27.2005 21.3739 27.4008C21.5422 27.6011 21.7422 27.76 21.9622 27.8682C22.1823 27.9764 22.4181 28.0319 22.6562 28.0315C23.5004 28.0316 24.3329 27.7978 25.088 27.3487C25.843 26.8996 26.4998 26.2475 27.0062 25.444L28.0937 23.719H30.8125L30.1135 26.63C29.3975 29.6118 29.6468 32.8047 30.8125 35.5785Z" fill="#8ACCE7"/>
<path d="M32.625 18.3283C34.1265 18.3283 35.3438 16.8802 35.3438 15.0939C35.3438 13.3076 34.1265 11.8595 32.625 11.8595C31.1235 11.8595 29.9062 13.3076 29.9062 15.0939C29.9062 16.8802 31.1235 18.3283 32.625 18.3283Z" fill="#262D43"/>
<path d="M32.625 10.7808C32.625 12.2735 32.253 13.7328 31.5559 14.974C30.8589 16.2151 29.8681 17.1825 28.7088 17.7538C27.5496 18.3251 26.274 18.4746 25.0434 18.1834C23.8127 17.8922 22.6823 17.1734 21.7951 16.1178C20.9078 15.0623 20.3036 13.7175 20.0588 12.2534C19.8141 10.7894 19.9397 9.27184 20.4199 7.89274C20.9001 6.51364 21.7133 5.33492 22.7566 4.50564C23.7999 3.67636 25.0265 3.23376 26.2812 3.23383C27.9635 3.23454 29.5767 4.0299 30.7663 5.44507C31.9558 6.86025 32.6244 8.77943 32.625 10.7808Z" fill="#2F4054"/>
<path d="M47.6302 42.8249L43.6133 45.2144L42.5937 40.9692C41.7856 40.6487 41.0735 40.0549 40.5446 39.2605C40.0157 38.4661 39.6928 37.5055 39.6156 36.4963L39.1205 30.022C39.0876 29.5856 39.1877 29.1496 39.4026 28.7936C39.6175 28.4377 39.9328 28.1855 40.291 28.0832C40.6492 27.9809 41.0263 28.0352 41.3536 28.2363C41.6809 28.4373 41.9365 28.7717 42.0738 29.1784L45.3125 38.8129L47.6302 42.8249Z" fill="#F4CEAF"/>
<path d="M38.9688 64.4335C38.9684 64.7869 38.8503 65.1257 38.6402 65.3756C38.4302 65.6255 38.1454 65.766 37.8484 65.7664H24.4688V58.71L26.2813 59.2976C26.8089 58.6692 27.4894 58.2545 28.2263 58.1123C28.9632 57.97 29.7191 58.1075 30.3866 58.5052L38.3491 63.2422C38.5352 63.3528 38.6917 63.5228 38.8012 63.7332C38.9106 63.9436 38.9686 64.1861 38.9688 64.4335Z" fill="#F4CEAF"/>
<path d="M28.0937 15.784V21.5628H23.5625C23.2267 21.5629 22.892 21.5187 22.5645 21.4307C22.6256 21.1664 22.6565 20.8935 22.6562 20.6194V15.4645L28.0937 15.784Z" fill="#F2C194"/>
<path d="M28.0937 12.9377V20.4846H23.5625C22.6011 20.4845 21.6791 20.0301 20.9993 19.2214C20.3196 18.4126 19.9376 17.3158 19.9375 16.1721V10.7814C19.9371 10.4206 19.9587 10.0603 20.0021 9.70325H25.375C26.096 9.70347 26.7874 10.0443 27.2972 10.6508C27.807 11.2574 28.0935 12.0799 28.0937 12.9377Z" fill="#F4CEAF"/>
<path d="M28.0938 12.9376C28.0938 12.3658 28.2847 11.8173 28.6246 11.4129C28.9645 11.0086 29.4255 10.7814 29.9062 10.7814C30.387 10.7814 30.848 11.0086 31.1879 11.4129C31.5278 11.8173 31.7188 12.3658 31.7188 12.9376V15.0939C31.7188 15.6658 31.5278 16.2143 31.1879 16.6186C30.848 17.023 30.387 17.2502 29.9062 17.2502H28.0938V12.9376Z" fill="#F2C194"/>
<path d="M32.5706 12.2902C32.5661 12.2666 32.5627 12.2443 32.557 12.222L32.5695 12.2285L32.5706 12.2902Z" fill="black"/>
<path d="M21.75 14.0158C22.2505 14.0158 22.6562 13.5331 22.6562 12.9376C22.6562 12.3422 22.2505 11.8595 21.75 11.8595C21.2495 11.8595 20.8437 12.3422 20.8437 12.9376C20.8437 13.5331 21.2495 14.0158 21.75 14.0158Z" fill="black"/>
<path d="M24.4687 14.0158C24.9692 14.0158 25.375 13.5331 25.375 12.9376C25.375 12.3422 24.9692 11.8595 24.4687 11.8595C23.9682 11.8595 23.5625 12.3422 23.5625 12.9376C23.5625 13.5331 23.9682 14.0158 24.4687 14.0158Z" fill="black"/>
<path d="M54.9335 53.5579L47.7367 41.1027C48.1169 40.6996 48.4206 40.2049 48.6277 39.6514C48.8347 39.0979 48.9403 38.4983 48.9375 37.8925C48.9384 34.7719 48.2257 31.7098 46.8757 29.0342L43.4399 22.2231L42.5665 18.0669C42.5348 17.916 42.4761 17.775 42.3944 17.6536C42.3127 17.5322 42.2099 17.4332 42.093 17.3634L40.2805 16.2852C40.1545 16.2109 40.0157 16.1722 39.875 16.1721H38.9687V14.0158C38.9688 13.8088 38.9188 13.6062 38.8245 13.4321C38.7303 13.2581 38.5959 13.1201 38.4375 13.0347L33.5233 10.3771C33.4615 8.79057 33.0325 7.25523 32.2836 5.94048C31.5347 4.62573 30.495 3.58269 29.2793 2.92647C28.0636 2.27024 26.7192 2.02636 25.3943 2.22171C24.0695 2.41707 22.8157 3.04409 21.7715 4.03355C21.2135 3.78047 20.6189 3.66109 20.022 3.68226C19.4251 3.70343 18.8376 3.86474 18.2932 4.15692C17.7489 4.44909 17.2584 4.86638 16.8501 5.38479C16.4417 5.90319 16.1235 6.5125 15.9137 7.17768C14.9813 10.1347 14.448 13.2486 14.3335 16.4039L13.6889 34.0368V34.0422C13.6254 34.6886 13.5936 35.3388 13.5937 35.9896C13.5928 37.9831 13.8857 39.9613 14.4592 41.8344L17.161 50.6725H7.98518C6.51942 50.6726 5.10152 51.2932 3.98519 52.4232C2.86885 53.5532 2.12693 55.1189 1.89217 56.8402C1.65741 58.5614 1.94514 60.3259 2.70387 61.8179C3.4626 63.3098 4.64281 64.4319 6.03334 64.9834C9.14278 66.217 12.3992 66.8455 15.677 66.8446H49.0576C50.3566 66.8446 51.631 66.4223 52.7431 65.6235C53.8551 64.8246 54.7626 63.6795 55.3675 62.3117C55.9723 60.944 56.2516 59.4057 56.1751 57.8629C56.0986 56.3201 55.6693 54.8315 54.9335 53.5579ZM38.6221 18.3283H39.6609L40.9092 19.0709L41.7147 22.9023C41.736 23.0058 41.7704 23.1049 41.8166 23.1961L45.3216 30.1434C46.5024 32.484 47.1259 35.1626 47.125 37.8925C47.1268 38.407 46.9728 38.905 46.6911 39.2954L46.1168 38.3009L42.9143 28.7782C42.7164 28.184 42.3581 27.6849 41.8959 27.3591L40.7495 22.3579C40.7074 22.1729 40.6245 22.0046 40.5093 21.8705C40.3942 21.7364 40.2511 21.6413 40.0947 21.5951L37.5663 20.8431L38.6221 18.3283ZM29 20.8444L30.45 18.544C31.2146 19.2259 32.1745 19.5213 33.1211 19.366L35.6088 22.3255H35.61C35.7262 22.4629 35.8714 22.5606 36.0302 22.6086L39.1398 23.5331L39.952 27.0761C39.5341 27.2231 39.1572 27.5016 38.8611 27.882L36.0212 24.0815C35.8906 23.9058 35.715 23.786 35.5216 23.7406L31.0221 22.6705L30.9903 22.6624C30.9318 22.6478 30.8722 22.6406 30.8125 22.6409H29V20.8444ZM38.6957 36.3656L33.9368 33.5354C33.7215 33.4084 33.4727 33.3876 33.2446 33.4775L31.303 34.2471C30.5146 31.9171 30.4026 29.3408 30.9847 26.9265L31.4548 24.971L34.8679 25.7837L38.2313 30.2835V30.2849L38.6957 36.3656ZM31.3109 36.5178L33.4621 35.6648L39.4184 39.2065V39.2078C39.9805 40.3474 40.8299 41.2475 41.8461 41.7805L44.7382 53.8206L31.3596 45.4839C30.3937 44.2776 29.8509 42.6784 29.8418 41.0124C29.8327 39.3463 30.3582 37.7389 31.3109 36.5178ZM43.4649 40.6727C43.4245 40.5042 43.3502 40.3499 43.2484 40.2233C43.1465 40.0967 43.0202 40.0016 42.8804 39.9464C42.2392 39.6924 41.6742 39.2214 41.2547 38.5911C40.8351 37.9608 40.5793 37.1986 40.5184 36.3979L40.0234 29.9251C40.0097 29.7463 40.0505 29.5677 40.1383 29.4218C40.2262 29.2759 40.3552 29.1725 40.5019 29.1304C40.6486 29.0884 40.8031 29.1106 40.9371 29.1929C41.0712 29.2752 41.1759 29.4121 41.2321 29.5787L44.4708 39.2132C44.4957 39.2873 44.5276 39.3579 44.566 39.4234L46.2946 42.4139L44.1842 43.6686L43.4649 40.6727ZM36.25 15.0939C36.2502 14.7849 36.2225 14.4767 36.1673 14.1748L37.1562 14.7098V16.9942L36.0019 19.742L34.9088 18.4415C35.3277 18.0375 35.6655 17.5273 35.8975 16.9481C36.1296 16.369 36.25 15.7355 36.25 15.0939ZM32.5695 12.2288L32.5706 12.2921C32.5661 12.2679 32.5627 12.2449 32.557 12.222L32.5695 12.2288ZM32.625 15.0939V14.9591C32.902 14.3652 33.1184 13.7341 33.2695 13.0791C33.6657 13.2584 33.9965 13.5972 34.2044 14.0366C34.4124 14.476 34.4843 14.9881 34.4076 15.4841C34.331 15.98 34.1107 16.4283 33.785 16.7509C33.4593 17.0736 33.0488 17.2503 32.625 17.2502C32.4185 17.2508 32.2134 17.2088 32.0189 17.1262C32.4119 16.5522 32.626 15.8342 32.625 15.0939ZM26.2812 4.31253C27.6854 4.31419 29.0348 4.96142 30.0473 6.11896C31.0597 7.2765 31.657 8.85477 31.7142 10.5239C31.2461 10.0266 30.6476 9.73754 30.0205 9.70609C29.3935 9.67464 28.7766 9.90271 28.275 10.3515C27.9374 9.81567 27.4996 9.38073 26.9963 9.08109C26.4929 8.78145 25.9378 8.62532 25.375 8.62508H21.1541C21.5301 7.36459 22.2247 6.27339 23.1427 5.50125C24.0606 4.72911 25.157 4.31388 26.2812 4.31253ZM20.8437 10.7814H25.375C25.8555 10.7821 26.3161 11.0095 26.6559 11.4138C26.9957 11.818 27.1868 12.366 27.1875 12.9376C27.1875 13.2236 27.283 13.4978 27.4529 13.7C27.6229 13.9022 27.8534 14.0158 28.0937 14.0158C28.3341 14.0158 28.5646 13.9022 28.7345 13.7C28.9045 13.4978 29 13.2236 29 12.9376C29 12.6517 29.0955 12.3775 29.2654 12.1753C29.4354 11.9731 29.6659 11.8595 29.9062 11.8595C30.1466 11.8595 30.3771 11.9731 30.547 12.1753C30.717 12.3775 30.8125 12.6517 30.8125 12.9376V15.0939C30.8122 15.3797 30.7166 15.6537 30.5467 15.8559C30.3768 16.058 30.1465 16.1717 29.9062 16.1721H29V15.0939H27.1875V23.3592L26.2812 24.7972C25.858 25.4652 25.3105 26.0076 24.6816 26.3817C24.0526 26.7558 23.3594 26.9515 22.6562 26.9534C22.416 26.9531 22.1857 26.8393 22.0158 26.6372C21.8459 26.4351 21.7503 26.1611 21.75 25.8753V24.2743C22.1804 23.9903 22.556 23.6021 22.8525 23.1349C23.1491 22.6676 23.3601 22.1316 23.4719 21.5614C23.5024 21.5627 23.5319 21.5627 23.5625 21.5627H25.375V19.4065H23.5625C22.8417 19.4053 22.1508 19.0642 21.6411 18.4579C21.1314 17.8515 20.8447 17.0295 20.8437 16.1721V10.7814ZM20.8437 20.4819C21.1106 20.7212 21.399 20.9246 21.7035 21.0884C21.6472 21.3681 21.5414 21.6304 21.3931 21.8577C21.2448 22.085 21.0576 22.272 20.8437 22.4064V20.4819ZM16.1437 16.4982C16.2506 13.5697 16.7457 10.6797 17.6107 7.93507C17.8168 7.28329 18.1938 6.72774 18.6859 6.35058C19.1779 5.97342 19.759 5.79467 20.343 5.84078C19.4876 7.28709 19.0294 9.0129 19.0312 10.7814V22.6409C18.8983 22.6408 18.767 22.6755 18.6466 22.7426C18.5261 22.8097 18.4196 22.9075 18.3346 23.029L16.9265 25.0411C16.5008 25.6492 16.1113 26.2918 15.7608 26.9642L16.1437 16.4982ZM16.1629 41.0973C15.4117 38.6404 15.2154 35.9921 15.5937 33.4168C15.972 30.8415 16.9116 28.4293 18.3187 26.4211L19.456 24.7972H19.9375V25.8753C19.9384 26.7328 20.2252 27.5548 20.7348 28.1611C21.2445 28.7674 21.9355 29.1086 22.6562 29.1097C23.6407 29.107 24.6112 28.833 25.4917 28.3093C26.3722 27.7855 27.1387 27.0262 27.7312 26.0909L28.5469 24.7972H29.6106L29.2424 26.3335C28.5208 29.3266 28.6954 32.5249 29.7363 35.3818C28.7655 36.762 28.1777 38.466 28.0538 40.2597C27.9298 42.0534 28.2758 43.8487 29.0442 45.399C27.9327 46.7285 26.6113 47.7835 25.156 48.5034C23.7006 49.2234 22.1401 49.5941 20.5639 49.5943H18.7594L16.1629 41.0973ZM37.8484 64.6883H25.375V60.121L26.0433 60.3379C26.1974 60.3877 26.3598 60.3883 26.5142 60.3396C26.6685 60.2908 26.8093 60.1945 26.9224 60.0604C27.3153 59.5918 27.8222 59.2825 28.3713 59.1763C28.9204 59.0701 29.4836 59.1724 29.981 59.4687L37.9447 64.2058C37.9877 64.2316 38.0222 64.2739 38.0425 64.3259C38.0628 64.3779 38.0678 64.4365 38.0567 64.4923C38.0456 64.5481 38.0189 64.5977 37.9811 64.6333C37.9433 64.6689 37.8966 64.6882 37.8484 64.6883ZM49.0576 64.6883H39.8636C39.8714 64.6037 39.8752 64.5186 39.875 64.4335C39.8762 63.9855 39.7719 63.546 39.5739 63.1649C39.3759 62.7837 39.0921 62.4762 38.7546 62.2773L30.7921 57.5402C30.0376 57.0907 29.1914 56.9051 28.3518 57.0051C27.5122 57.105 26.7136 57.4864 26.049 58.1049L20.1448 56.1885C17.6581 55.3791 15.0618 55.1597 12.504 55.543L8.95034 56.0713L9.17463 58.2113L12.7294 57.6831C15.0522 57.3349 17.4098 57.5341 19.6679 58.2693L23.5625 59.5334V64.6883H15.677C12.594 64.6895 9.53109 64.0983 6.60655 62.9376C5.62431 62.5481 4.79063 61.7555 4.25467 60.7016C3.71871 59.6477 3.51545 58.4014 3.68127 57.1855C3.84708 55.9696 4.37115 54.8637 5.15969 54.0654C5.94824 53.2672 6.94981 52.8288 7.98518 52.8288H18.125C18.244 52.8288 18.3619 52.8009 18.4718 52.7468C18.5818 52.6926 18.6817 52.6132 18.7659 52.5131C18.85 52.4129 18.9168 52.2941 18.9623 52.1632C19.0078 52.0324 19.0313 51.8922 19.0312 51.7506H20.5639C24.149 51.7492 27.5925 50.0858 30.1634 47.1133L30.1713 47.1227C30.2366 47.1994 30.3111 47.2643 30.3922 47.3154L49.4235 59.1749L50.264 57.264L46.954 55.202L44.6905 45.7791L47.3311 44.209L53.4393 54.7788C53.9882 55.7286 54.3086 56.8388 54.3657 57.9895C54.4229 59.1401 54.2147 60.2875 53.7636 61.3076C53.3125 62.3277 52.6357 63.1818 51.8063 63.7776C50.9769 64.3734 50.0265 64.6883 49.0576 64.6883Z" fill="black"/>
</svg>
